<svg id="Capa_1" data-name="Capa 1" xmlns="http://www.w3.org/2000/svg" viewBox="0 0 74.63 87.92"><defs><style>.cls-1{fill:#2a7ae4;}</style></defs><path class="cls-1" d="M68.63,37.76q-23.44,0-46.91,0c-.68,0-.9.11-.9.86q0,16.56,0,33.11c0,.72,0,1.45.09,2.18a5.75,5.75,0,0,0,4,4.72,17.74,17.74,0,0,0,4.77.24c.75,0,.92.2.92.92,0,3.62,0,7.23,0,10.85h0a5.43,5.43,0,1,0,10.86,0v0c0-3.66,0-7.32,0-11,0-.61.14-.8.77-.78q3,.06,5.91,0c.59,0,.7.18.69.72,0,3.66,0,7.32,0,11v.08h0a5.46,5.46,0,0,0,10.92,0v-.19c0-3.64,0-7.28,0-10.92,0-.52.13-.69.66-.67,1,.05,2,0,3,0a6.09,6.09,0,0,0,2.8-.54,5.89,5.89,0,0,0,3.32-5.67q0-17,0-34.09C69.49,37.89,69.3,37.75,68.63,37.76Z" transform="translate(-7.84 -8.19)"/><path class="cls-1" d="M65.79,23.75A22.63,22.63,0,0,0,57.7,16.6c-.38-.19-.49-.36-.24-.8,1.13-2,2.2-4.09,3.32-6.12a1.08,1.08,0,0,0-.12-1.49H60c-1.2,1.87-2.19,3.86-3.24,5.82-.85,1.58-.81,1.62-2.46,1a26.52,26.52,0,0,0-15.91-.73,24.44,24.44,0,0,0-3.25,1.12c-.44.17-.64.12-.87-.31-1-1.82-2-3.62-3-5.42-.28-.51-.6-1-.9-1.5h-.7a1.08,1.08,0,0,0-.12,1.49c1.12,2,2.19,4.09,3.32,6.11.25.44.14.61-.24.81a22.51,22.51,0,0,0-6.31,4.87A21.24,21.24,0,0,0,20.63,35c0,.76.2.88.89.88q23.33,0,46.64,0c1.47,0,1.48,0,1.4-1.46A20.1,20.1,0,0,0,65.79,23.75ZM34,27A2.06,2.06,0,0,1,32,25a2,2,0,0,1,2-2.07,2.07,2.07,0,0,1,2.08,2A2.11,2.11,0,0,1,34,27Zm22.4,0a2.07,2.07,0,0,1,0-4.13,2,2,0,0,1,2,2.06A2.06,2.06,0,0,1,56.37,27Z" transform="translate(-7.84 -8.19)"/><path class="cls-1" d="M18.71,53.64V42.58a6,6,0,0,0-1.36-4,5.48,5.48,0,0,0-8.09-.08,6,6,0,0,0-1.42,4.15q0,10.61,0,21.2a15.11,15.11,0,0,0,.09,1.9,5.42,5.42,0,0,0,10.77-1.23Z" transform="translate(-7.84 -8.19)"/><path class="cls-1" d="M82.47,42.37a5.44,5.44,0,1,0-10.86.21c0,3.63,0,7.27,0,10.91,0,1.57,0,3.14,0,4.71,0,2.44-.14,4.89.07,7.32a5,5,0,0,0,3.47,4.53,5.42,5.42,0,0,0,7.33-5.29C82.45,57.29,82.47,49.83,82.47,42.37Z" transform="translate(-7.84 -8.19)"/></svg>