<svg id="Capa_1" data-name="Capa 1" xmlns="http://www.w3.org/2000/svg" viewBox="0 0 450.71 257.95"><defs><style>.cls-1{fill:#0089d6;}.cls-2{fill:#318bd7;}.cls-3{fill:#85bce7;}.cls-4{fill:#3ea4df;}.cls-5{fill:#fff;}.cls-6{fill:#c0e7f7;}.cls-7{fill:none;}</style></defs><path class="cls-1" d="M45.43,191.92c4.13-.76,8.26-1.55,12.4-2.28,10.47-1.86,21-3.68,31.42-5.54q14.58-2.57,29.15-5.18c.24,0,.47-.11.73-.17,0-.78-.62-1.14-1-1.61q-18.62-22.2-37.27-44.37a2.86,2.86,0,0,1-.64-3.23Q90,102.92,99.62,76.24a5,5,0,0,1,.86-1.78L168.33,191.9c-.39.67-.88.47-1.29.5s-.76,0-1.14,0l-118.41,0c-.7,0-1.4,0-2.1-.07-.11-.11-.14-.2-.09-.28S45.39,191.92,45.43,191.92Z"/><path class="cls-1" d="M94.06,66.89c-2.69,5.83-5.37,11.68-8.08,17.5q-21.42,45.94-42.86,91.89a8.27,8.27,0,0,0-.48,1.05c-.29,1-1,1.17-1.9,1.16-4,0-8,0-12,0H4.79c-.13-.88.42-1.4.76-2Q23,146.29,40.37,116.09c1.72-3,3.44-6,5.15-8.94A6.21,6.21,0,0,1,47,105.4L93,66.86c.19-.16.41-.3.62-.45C94,66.31,94.16,66.47,94.06,66.89Z"/><path class="cls-1" d="M249.3,178.65c-2.83,0-5.57,0-8.3,0-.94,0-1.17-.53-1.43-1.22-1.32-3.58-2.67-7.15-4-10.73-.94-2.5-1.92-5-2.8-7.51a1.64,1.64,0,0,0-1.79-1.29q-14.34.06-28.69,0c-1.16,0-1.52.54-1.85,1.46-2,5.83-4.12,11.64-6.19,17.46-.64,1.8-.64,1.8-2.51,1.81h-7.39a2.7,2.7,0,0,1,.4-2q13.37-35.16,26.76-70.31c.62-1.63.63-1.63,2.28-1.64h5.73c1.65,0,1.65,0,2.28,1.64q4.71,12.2,9.41,24.41,8.78,22.8,17.56,45.62A4,4,0,0,1,249.3,178.65Z"/><path class="cls-1" d="M442.21,167.45c0,2.23,0,4.5,0,6.77,0,.82-.61,1-1.14,1.36a30.46,30.46,0,0,1-14.68,4.35,29.92,29.92,0,0,1-9.66-.8c-7-2.06-12-6.42-14.57-13.24-3.43-9.2-3.44-18.48.73-27.5,3.4-7.33,9.05-12.09,17.09-13.6a22,22,0,0,1,12.77,1.1c6.49,2.71,10.29,7.71,12,14.37a43.72,43.72,0,0,1,1.08,12.9c0,1.22-.09,1.23-1.76,1.24l-32.89,0c-3,0-3,0-2.61,2.92a21.49,21.49,0,0,0,2.11,6.9c2.84,5.53,7.54,8.16,13.56,8.47A25.92,25.92,0,0,0,440.87,168C441.21,167.71,441.5,167.29,442.21,167.45Z"/><path class="cls-1" d="M341.06,171.05c-.4,0-.48.38-.63.63-4.19,6.44-10.26,8.84-17.72,8.23a24.42,24.42,0,0,1-2.83-.41c-7.54-1.57-11.5-6.57-13.08-13.78a34.14,34.14,0,0,1-.78-7.2q0-15.4-.07-30.79c0-.32,0-.64,0-1,0-.62.22-1,.88-1q3.36,0,6.7,0c.65,0,.92.29.91.92,0,.44,0,.89,0,1.34L314.5,156a28.09,28.09,0,0,0,1.05,8.31c1.7,5.52,5.55,8.34,11.33,8.45s9.73-2.51,12.35-7.43a16.52,16.52,0,0,0,2-8.06c-.06-9.63,0-19.25,0-28.87,0-.51,0-1,0-1.53s.3-.79.84-.79h7.08a.71.71,0,0,1,.81.8c0,.38,0,.77,0,1.15v49c0,1.64,0,1.65-1.7,1.66-1.91,0-3.82,0-5.73,0-.9,0-1.26-.31-1.24-1.23,0-1.72,0-3.44,0-5.16C341.28,171.87,341.44,171.41,341.06,171.05Z"/><path class="cls-1" d="M283.36,133.05H270.64l-13.58,0c-1.54,0-1.55,0-1.57-1.59s0-3.06,0-4.59c0-.73.28-1.06,1-1,.38,0,.77,0,1.15,0h36.91c1.78,0,2.39,1,1.56,2.68a11.12,11.12,0,0,1-1,1.41l-28.45,39.35a4.67,4.67,0,0,0-1.17,2,23.12,23.12,0,0,0,4.22.2l23.9,0c.45,0,.9,0,1.34,0,.74,0,1,.31,1,1,0,1.73,0,3.45,0,5.17,0,.63-.26.94-.9.94-.44,0-.89,0-1.34,0h-39a.6.6,0,0,1-.19,0c-.65-.13-1.61.38-1.89-.44a3,3,0,0,1,.21-2.58c.28-.43.59-.84.89-1.25l28.79-39.57A2.92,2.92,0,0,0,283.36,133.05Z"/><path class="cls-1" d="M375.79,136.11a20.62,20.62,0,0,1,4.55-7.39c3.6-3.73,8-4.33,12.86-3.58a1.4,1.4,0,0,1,1.35,1.67c-.07,2.4,0,4.81,0,7.35a29.37,29.37,0,0,0-4.2-1.31c-4.57-.56-8.37.8-10.95,4.68a21.68,21.68,0,0,0-3.79,12c-.05,8.86-.07,17.72-.11,26.57,0,.51,0,1,0,1.53,0,.75-.37,1-1.07,1-2.1,0-4.2,0-6.31,0-.77,0-1.21-.24-1.15-1.09,0-.51,0-1,0-1.53q0-24.09,0-48.18c0-.32,0-.64,0-1,0-.72.27-1,1-1,2.17,0,4.34,0,6.51,0,.87,0,1.08.41,1.08,1.17,0,2.3,0,4.59,0,6.89A4.91,4.91,0,0,0,375.79,136.11Z"/><path class="cls-2" d="M45.43,191.92c0,.13,0,.26,0,.4a1.43,1.43,0,0,1-1.32-.18A1.9,1.9,0,0,1,45.43,191.92Z"/><path class="cls-3" d="M93.94,66c.14-.26.35-.55.63-.44s.15.36-.06.52A.35.35,0,0,1,93.94,66Z"/><path class="cls-4" d="M93.94,66l.57.08a1.13,1.13,0,0,1-.45.81l-.47-.48Z"/><path class="cls-5" d="M216.78,114.66A118.67,118.67,0,0,0,221.29,128c2.43,6.69,4.92,13.37,7.38,20.05.16.42.31.83.43,1.26s0,.74-.53.77l-1,0-22.16,0a2.23,2.23,0,0,1-1.31-.2c-.2-.54.12-1,.28-1.43q5.33-14.62,10.64-29.22c.41-1.14.72-2.31,1.07-3.46.26-.35,0-.83.31-1.17h0C216.57,114.46,216.68,114.48,216.78,114.66Z"/><path class="cls-6" d="M216.44,114.63a1.1,1.1,0,0,1-.31,1.17A1.14,1.14,0,0,1,216.44,114.63Z"/><path class="cls-6" d="M216.78,114.66a1,1,0,0,1-.34,0c-.06-.24,0-.56.2-.55S216.85,114.43,216.78,114.66Z"/><path class="cls-5" d="M408.64,147a18.62,18.62,0,0,1,6.55-12.13c4-3.24,8.51-3.8,13.31-2.4a10.46,10.46,0,0,1,6,4.73,18.56,18.56,0,0,1,2.67,8.85c.05.77-.16,1.16-1,1.16q-13.46,0-26.91,0A2.73,2.73,0,0,1,408.64,147Z"/><rect class="cls-7" width="450.71" height="257.95"/></svg>