<svg id="Capa_1" data-name="Capa 1" xmlns="http://www.w3.org/2000/svg" viewBox="0 0 15 12"><defs><style>.cls-1{fill:#2a7ae4;}</style></defs><path class="cls-1" d="M10.54.83a1,1,0,1,0,1,1A1,1,0,0,0,10.54.83Zm-1.86,2A.48.48,0,0,0,8.34,3L5.7,5.46a.5.5,0,0,0,0,.77l1.8,1.35v2.75a.5.5,0,1,0,1,0v-3a.48.48,0,0,0-.2-.4l-.77-.58L9.39,4.63l.75,1a.51.51,0,0,0,.4.2H12a.5.5,0,1,0,0-1H10.79l-.75-1L9.44,3a.5.5,0,0,0-.39-.21Zm-5.14,4a3,3,0,1,0,3,3A3,3,0,0,0,3.54,6.83Zm9,0a3,3,0,1,0,3,3A3,3,0,0,0,12.54,6.83Zm-9,1a2,2,0,1,1-2,2A2,2,0,0,1,3.54,7.83Zm9,0a2,2,0,1,1-2,2A2,2,0,0,1,12.54,7.83Z" transform="translate(-0.54 -0.83)"/></svg>