<svg id="Capa_1" data-name="Capa 1" xmlns="http://www.w3.org/2000/svg" viewBox="0 0 388.17 473.8"><defs><style>.cls-1{fill:#2a7ae4;}.cls-2{fill:#f7f7f7;}</style></defs><path class="cls-1" d="M394.21,125c-5.94-5.84-12-11.53-18-17.33-31.31-30.4-61.82-61.61-92.77-92.39a58.9,58.9,0,0,0-5.21-4.64H84.36a33.84,33.84,0,0,0-6,.53c-3.83.7-2.56.39-4.46.84C54.66,15.42,37.4,36.1,36.2,56.14c-.28,4.65-.24,9.32-.24,14q0,86.19.07,172.39c0,3.56-.4,5.1-4.7,5.19C18.8,248,10.5,257,10.5,269.67q0,60.21,0,120.43c0,13,8.08,21.66,21.18,22,3.59.1,4.38,1.14,4.39,4.51,0,9.8-1.31,19.72,1.17,29.35,4.68,18.22,15.67,30.8,33.91,36.54,1.59-.24,2.95-.11,3.16,1.92H358.2c.23-2.12,1.69-2.1,3.27-1.87l-.12.86h.5c7.89-1.26,14-5.71,19.61-10.95a4.27,4.27,0,0,1-.32-1.19,3,3,0,0,1,2-1.86,3.14,3.14,0,0,0,.43,1l1.11-1a49.6,49.6,0,0,0,13.84-34.92q.18-149.42.11-298.84A14,14,0,0,0,394.21,125ZM65,312.73c6.74-15.18,19.76-22.3,35.92-24a59.55,59.55,0,0,1,22.72,1.78c2.8.8,4.49,1.47,3,5-1.38,3.31-.94,8.44-3.21,10-2.07,1.44-6.7-.84-10.21-1.47-12.69-2.27-24.64,3-29.78,13.15-6,11.87-3.82,28.32,5.13,36.53,7,6.45,15.66,7.49,24.71,6.46,3.42-.39,7.64-2.55,10-1.23,2.51,1.42,1.41,6.44,2.57,9.66,1.25,3.48-.33,4.49-3.23,5-2.11.41-4.17,1.18-6.29,1.43-3.63.43-7.3.58-10.1.78-15.4-.22-28.82-3.59-37.66-16.18C58.2,345,57.9,328.72,65,312.73Zm300.38,120c0,13-7.74,21.09-20.62,21.1q-128.44.09-256.89,0c-12.44,0-20.27-7.94-20.42-20.27-.07-5.83.19-11.67-.07-17.49-.15-3.22,1.06-3.91,4-3.85,7.82.17,15.66.06,23.49.06h210.4c16.67,0,24.56-7.85,24.56-24.38q0-58.22,0-116.44c0-6-.89-11.59-4.95-16.3-4.8-5.57-11-7.58-18.21-7.58q-116.69,0-233.39.13c-4.78,0-6-1.06-6-5.92.19-59.13.35-118.27,0-177.41-.09-13.6,9.39-22.25,22.37-22.19,56.64.3,113.28.12,169.92-.1,4.66,0,5.74,1.26,5.69,5.77-.26,19.82-.15,39.65-.1,59.47.06,20.75,15.53,36.12,36.41,36.12,19.16,0,38.32,0,57.47-.29,4.05-.05,5.62.47,5.59,5.21-.22,47.64-.13,95.28-.13,142.92h.9Q365.37,362,365.37,432.68ZM170.51,343a51.1,51.1,0,0,0-10.92-4.86,46,46,0,0,1-11.11-5.6c-15.27-10.63-13.91-31.3,2.57-40,6.22-3.29,12.91-4.19,19.8-4.17a56,56,0,0,1,17.61,3c2.22.79,2.86,1.55,2.06,3.88-1.24,3.6-1.05,8.37-3.4,10.72-2.61,2.61-6.55-1.3-10.09-1.76-4.86-.63-9.57-1.16-14.26.43-3,1-5.25,2.86-5.79,6.23-.56,3.55.91,6.09,3.77,8.06,4.16,2.86,9,4.3,13.56,6.19a51,51,0,0,1,10.16,5.27c14.36,10,13.73,31.36-1.53,40-14.2,8-29,6.52-43.87,1.53-1.74-.59-2.38-1.58-1.74-3.35a14.28,14.28,0,0,0,.25-1.48c.93-3.52.82-8.27,3.1-10.23,2.47-2.12,6.29,1.71,9.71,2.33,5.89,1.07,11.71,2.28,17.72.55,4-1.17,6.87-3.43,7.47-7.71S173.77,345.14,170.51,343Zm58.7-24.46c2.29,1.36,2.29,1.36,5.88,3.38,5.24,2.49,10.87,4,15.87,7.09,8.57,5.23,13.1,12.56,12.22,22.77-.82,9.45-5.72,16.3-14.26,20.07-13.65,6-27.49,4.93-41.25.05-1.82-.65-2.56-1.43-1.8-3.66,1.27-3.74.83-8.87,3.25-11.19,2.57-2.48,6.62,1.67,10.22,2.27,6.08,1,12.12,2.22,18.21.17,3.38-1.14,5.74-3.25,6.38-6.95s-.85-6.52-3.66-8.7c-3.06-2.39-6.69-3.69-10.29-5A56.14,56.14,0,0,1,216.19,332c-13.52-9.68-13.26-28.85.82-37.77,12.84-8.13,26.55-7,40.37-2.67,1.93.6,2.23,1.69,1.81,3.36,0,.16-.07.33-.11.49-1,3.51-1,7.82-3.17,10.32-2.77,3.21-6.29-1.1-9.67-1.43-5-.48-9.87-1.4-14.76.3-5.83,2-7.47,6.54-4.45,12" transform="translate(-10.49 -10.65)"/><path class="cls-2" d="M204.58,247.56h0Z" transform="translate(-10.49 -10.65)"/></svg>