<svg id="Capa_1" data-name="Capa 1" xmlns="http://www.w3.org/2000/svg" viewBox="0 0 305.93 297.44"><defs><style>.cls-1,.cls-2,.cls-3,.cls-4{fill:#2a7ae4;}.cls-1,.cls-2,.cls-3{stroke:#fff;fill-rule:evenodd;}.cls-1{stroke-width:13.06px;}.cls-2{stroke-width:6.25px;}.cls-3{stroke-width:15.25px;}.cls-4{stroke:#2a7ae4;stroke-linecap:round;stroke-width:18.13px;}</style></defs><path class="cls-1" d="M197.26,87.74h35.43a26.58,26.58,0,0,1,26.58,26.58h0v17.51a26.57,26.57,0,0,1-26.58,26.57H197.26a26.56,26.56,0,0,1-26.57-26.57h0V114.32a26.57,26.57,0,0,1,26.57-26.58h0" transform="translate(-8.11 -5.82)"/><path class="cls-2" d="M52.46,123h183.3A41.23,41.23,0,0,1,277,164.2h0v94.71a41.22,41.22,0,0,1-41.23,41.22H52.46a41.21,41.21,0,0,1-41.22-41.22V164.2A41.22,41.22,0,0,1,52.46,123" transform="translate(-8.11 -5.82)"/><path class="cls-3" d="M196,211.56a53.15,53.15,0,1,1-53.15-53.15A53.16,53.16,0,0,1,196,211.56Z" transform="translate(-8.11 -5.82)"/><path class="cls-4" d="M162.83,83.12,127.4,47.68" transform="translate(-8.11 -5.82)"/><path class="cls-4" d="M216.39,65V14.88" transform="translate(-8.11 -5.82)"/><path class="cls-4" d="M269.54,82.71,305,47.28" transform="translate(-8.11 -5.82)"/></svg>