<svg id="svg5" xmlns="http://www.w3.org/2000/svg" viewBox="0 0 3457.44 2395.34"><defs><style>.cls-1{fill:#2a7ae4;}.cls-2,.cls-3,.cls-4{fill:#fff;stroke-width:0.11px;}.cls-2{stroke:#ffd4b8;}.cls-3{stroke:#ffd1b1;}.cls-4{stroke:#ffd2b5;}</style></defs><g id="layer1"><g id="g1158"><g id="g1094"><path id="path1086" class="cls-1" d="M56.53,1648.34c16.38-313.17,198.67-569.69,489.91-832C744.4,633.61,957.26,475.28,1217,390.7c266.55-86.79,540.54-255.38,887.37-281.52,254.41-62.93,226.59-22.27,306.08-21,202.63,6.95,376.21-67.61,829.4,257.72,122.56,115.51,216.26,269.44,248.85,425.58,22.41,184.59,52.91,354.65-100.53,578.13-217.19,237.89-474.54,381.67-744,511.53C2344.61,1999,1975.59,2160.89,1742,2271c-173.08,40.67-288.19,94.54-434.37,139.3-147.31,25.11-692.82,172.87-1033.36-122.64C229.68,2235.85,140.07,2122.35,77,1959.49c-31.16-80.44-31.74-181.35-20.45-311.15Z" transform="translate(-49.82 -74.09)"/><path id="path1088" class="cls-2" d="M512.75,925.75C1065.2,829,1248.94,1210,1491.47,1514.83,1149.69,1350.75,866.67,1103.3,512.75,925.75Z" transform="translate(-49.82 -74.09)"/><path id="path1090" class="cls-3" d="M1275.92,383.84c239.54-69.16,365.35-78.51,559.15-25.36,240.33,162.59,383.57,413.06,507.46,663.14C1926,678,1765.84,553.79,1372.54,405.19Z" transform="translate(-49.82 -74.09)"/><path id="path1092" class="cls-4" d="M2494.43,101.59c449-32.81,556.79,340.44,583.58,457.6-283.53-160.47-430-333.15-673.36-465Z" transform="translate(-49.82 -74.09)"/></g></g></g></svg>