<svg id="Capa_1" data-name="Capa 1" xmlns="http://www.w3.org/2000/svg" viewBox="0 0 63.61 89.78"><defs><style>.cls-1{fill:#3c72b8;}</style></defs><path class="cls-1" d="M16.05,8.33H20.1v4h3.7v-4h4V20.44h-4V16.39H20.1v4.05H16.05V8.33Z" transform="translate(-10.13 -8.33)"/><path class="cls-1" d="M33.17,12.35H29.6v-4H40.78v4H37.21v8.09h-4V12.35Z" transform="translate(-10.13 -8.33)"/><path class="cls-1" d="M42.55,8.33h4.22l2.6,4.26L52,8.33h4.22V20.44h-4v-6l-2.78,4.3H49.3l-2.79-4.3v6h-4Z" transform="translate(-10.13 -8.33)"/><path class="cls-1" d="M58.19,8.33h4.05v8.11h5.69v4H58.19Z" transform="translate(-10.13 -8.33)"/><path class="cls-1" d="M10.13,26l5.79,64.93,26,7.21L68,90.9,73.74,26ZM61.67,41.39l-.37,4-.16,1.79H30.67l.73,8.16h29l-.2,2.14-1.87,21-.12,1.35L41.94,84.33h0L25.59,79.82,24.47,67.31h8L33,73.66l8.87,2.4h0l8.88-2.4.92-10.33H24.12l-2-21.94L22,39.25H61.86Z" transform="translate(-10.13 -8.33)"/></svg>