<svg id="svg5" xmlns="http://www.w3.org/2000/svg" viewBox="0 0 608.21 364.11"><defs><style>.cls-1{fill:#2a7ae4;stroke-miterlimit:10;stroke-width:12px;}.cls-1,.cls-3{stroke:#fff;}.cls-2,.cls-3{fill:#fff;}.cls-3{stroke-miterlimit:15.12;}</style></defs><rect class="cls-1" x="6" y="6" width="376.99" height="260.49" rx="59.06"/><path id="path73485" class="cls-2" d="M110,114.33c9.62,21.3,21.66,39.88,36.49,55.56-19.95,16.41-44.37,28.34-74,36.92,3,3.17,7.46,9.88,8.76,13.23,30-9.69,55.19-22.55,75.7-40.08a166,166,0,0,0,33,23.09l5.63-14.75a165.59,165.59,0,0,1-27.48-18.78C187.47,150,202.2,125.34,213.2,94.76h28.71V81.15H164.53V66.3h-14V81.15H74.67V94.76H197.16c-9.51,26.29-22.56,47.73-39.71,65.07a173.12,173.12,0,0,1-31.78-45.5Z" transform="translate(-4.54 -6.93)"/><rect class="cls-1" x="231.69" y="97.61" width="370.52" height="260.49" rx="59.06"/><path id="path73483" class="cls-3" d="M464.73,178.33,433.8,255h62ZM451.86,157.8h25.85l64.22,154h-23.7l-15.35-39.5h-76l-15.35,39.5h-24Z" transform="translate(-4.54 -6.93)"/></svg>