<svg id="Capa_1" data-name="Capa 1" xmlns="http://www.w3.org/2000/svg" viewBox="0 0 73.74 99.7"><defs><style>.cls-1{fill:#2a7ae4;}</style></defs><path class="cls-1" d="M45.05,62a92.75,92.75,0,0,1-8.18-8.17A24.55,24.55,0,0,1,33,48a8.87,8.87,0,0,1,1.08-9.68,35.32,35.32,0,0,1,5.78-5.75c2.54-2.06,5.11-4.08,7.64-6.16.83-.67,1.6-1.42,2.36-2.16,4.68-4.56,7-9.88,5.37-16.59.5.17.64.54.82.83a12.1,12.1,0,0,1,1,10.83c-1.52,4.42-4.46,7.85-7.76,11-1.52,1.46-3.18,2.76-4.81,4.1a25.57,25.57,0,0,0-5.34,5.74,10.43,10.43,0,0,0-.69,10.89,41.56,41.56,0,0,0,3.49,5.6A39.27,39.27,0,0,1,44.73,61c.16.3.46.57.3,1Z" transform="translate(-8.29 -7.68)"/><path class="cls-1" d="M75.93,93.14c.83-.14,1.24.46,1.57,1a1.4,1.4,0,0,1-.32,1.7,8.54,8.54,0,0,1-2.92,1.89A45.11,45.11,0,0,1,64,100.64a141.5,141.5,0,0,1-33.59,1.62,165.31,165.31,0,0,1-17.75-2,10.51,10.51,0,0,1-3.06-.92c-1.56-.8-1.73-1.84-.49-3.06a8.69,8.69,0,0,1,2.31-1.58A25.92,25.92,0,0,1,20.88,92a6.06,6.06,0,0,1,3.23.44c-1.12.18-2.05.28-3,.47a17.66,17.66,0,0,0-5.45,2c-.5.29-1.11.6-1,1.29s.7.8,1.21,1a33,33,0,0,0,8.89,1.93A176.27,176.27,0,0,0,66,98.28a36.36,36.36,0,0,0,7.57-1.69,6,6,0,0,0,2.27-1.29,1.4,1.4,0,0,0,.1-2.19Z" transform="translate(-8.29 -7.68)"/><path class="cls-1" d="M67.13,28a2.06,2.06,0,0,1-1,.75,84,84,0,0,0-9.43,6.34,22.22,22.22,0,0,0-4.24,4.26A6.47,6.47,0,0,0,52,46.7a41.4,41.4,0,0,0,3,4.45c2.3,3.21,2.27,6.21-.1,9.38a18.78,18.78,0,0,1-4.82,4.33c-.22.14-.44.29-.72.14.33-.43.68-.85,1-1.3a6.4,6.4,0,0,0-.4-8.39,24.87,24.87,0,0,1-3.1-4.46,10.61,10.61,0,0,1,1.42-12.56,24.19,24.19,0,0,1,6.41-5.15,53.55,53.55,0,0,1,11.77-5Z" transform="translate(-8.29 -7.68)"/><path class="cls-1" d="M65.23,66.5c-2.67,2.25-5.93,2.73-9.15,3.23a125.69,125.69,0,0,1-30.7,1,28.51,28.51,0,0,1-7.14-1.35c-.77-.27-1.79-.49-1.86-1.47s.93-1.33,1.67-1.69a36.72,36.72,0,0,1,14.16-3.78c.29,0,.58,0,.87,0a5.3,5.3,0,0,1,.53.07c-1.4.4-2.57.72-3.73,1.08a27,27,0,0,0-5,1.9,5.69,5.69,0,0,0-.74.46c-.89.69-.84,1.27.21,1.68a18,18,0,0,0,5.72,1,160.83,160.83,0,0,0,25-.87c3-.31,5.91-.72,8.85-1.19A2.89,2.89,0,0,1,65.23,66.5Z" transform="translate(-8.29 -7.68)"/><path class="cls-1" d="M61,89.47a37.86,37.86,0,0,1-8,2.5,45,45,0,0,1-20-.27,12.5,12.5,0,0,1-4.43-1.92c-1.68-1.23-1.64-2.55.1-3.68a10.73,10.73,0,0,1,2.91-1.24c-.09.57-.75.89-.44,1.45a2.1,2.1,0,0,0,1.53.93,47.25,47.25,0,0,0,8.38.93,56.07,56.07,0,0,0,13.61-1.24,2.31,2.31,0,0,1,1.74.3A37,37,0,0,0,61,89.47Z" transform="translate(-8.29 -7.68)"/><path class="cls-1" d="M29.22,73.9c.05.3-.16.38-.27.52-1.06,1.33-.81,2.2.84,2.73a23.48,23.48,0,0,0,5.28.72,80.16,80.16,0,0,0,22.71-1.42,1.56,1.56,0,0,1,1.49.37,13.22,13.22,0,0,0,3.41,2,49.41,49.41,0,0,1-6.3,1.56,74.7,74.7,0,0,1-22.82,1,23.17,23.17,0,0,1-7.13-1.76c-1-.44-2.07-.89-2.11-2.17s1-1.72,1.89-2.25A12.83,12.83,0,0,1,29.22,73.9Z" transform="translate(-8.29 -7.68)"/><path class="cls-1" d="M22,104.64a166.18,166.18,0,0,0,21.25,1.13c10-.1,19.86-.88,29.55-3.38,1.22-.32,2.43-.71,3.61-1.13a14.49,14.49,0,0,0,5.5-3.05,3.55,3.55,0,0,1-1.33,2.65,12.84,12.84,0,0,1-4.13,2.5,48.94,48.94,0,0,1-12.35,2.91,150.31,150.31,0,0,1-31,.57,42.24,42.24,0,0,1-9.65-1.67C22.93,105,22.46,104.82,22,104.64Z" transform="translate(-8.29 -7.68)"/><path class="cls-1" d="M66.38,81c.19-.51.61-.59.94-.77a30.91,30.91,0,0,0,7.59-5.51,11.26,11.26,0,0,0,2.44-3.59,5.59,5.59,0,0,0-.71-6,6.24,6.24,0,0,0-6.16-2.24c-.6.1-1.19.28-1.92.46a2.06,2.06,0,0,1,1.19-1,9.9,9.9,0,0,1,8.63.38,6.73,6.73,0,0,1,2.82,9.26,12.74,12.74,0,0,1-4.14,4.55C74.38,78.33,69,80.65,66.38,81Z" transform="translate(-8.29 -7.68)"/><path class="cls-1" d="M45,62l0,0,0,0Z" transform="translate(-8.29 -7.68)"/><path class="cls-1" d="M75.91,93.11l.07,0c0-.08,0-.08,0,0Z" transform="translate(-8.29 -7.68)"/></svg>