<svg id="Capa_1" data-name="Capa 1" xmlns="http://www.w3.org/2000/svg" viewBox="0 0 597.16 506.49"><defs><style>.cls-1{fill:#2a7ae4;}</style></defs><path class="cls-1" d="M550.2,428a10.22,10.22,0,0,0-3.74,0,7.62,7.62,0,0,0-3.88,2.67c-.26.34-4.37,7.38-9.14,15.64S518.6,472.11,511,485.21s-13.9,24.11-14.06,24.45a7.33,7.33,0,0,0,.11,6.73,9.4,9.4,0,0,0,2.66,2.83c3.52,2.32,7.68,1.8,10.22-1.28.28-.34,3.57-5.93,7.3-12.39s7.35-12.73,8-13.9,7.83-13.54,15.88-27.49c9.24-16,14.76-25.67,14.94-26.19a8.93,8.93,0,0,0,.25-4A8.45,8.45,0,0,0,550.2,428Z" transform="translate(-11.58 -14.17)"/><path class="cls-1" d="M471.61,486.33c-6.77-6.76-12.31-12.34-12.31-12.4s5.43-5.51,12.06-12.1,12.38-12.4,12.79-12.9a7.84,7.84,0,0,0,1.59-3.1,8.46,8.46,0,0,0-.17-3.9,8.91,8.91,0,0,0-5.34-5.33,9.52,9.52,0,0,0-4-.18,9.68,9.68,0,0,0-2.44,1.15c-.71.47-30.94,30.65-31.69,31.62a9.13,9.13,0,0,0-1.46,3,8.87,8.87,0,0,0,.12,3.9c.6,2-.33,1,17,18.34,15.62,15.62,15.93,15.93,16.87,16.39a6.44,6.44,0,0,0,3.66.83,8.26,8.26,0,0,0,6.8-4.64,6.8,6.8,0,0,0,.83-3.31,6.94,6.94,0,0,0-1.48-4.37C484.15,499,478.38,493.09,471.61,486.33Z" transform="translate(-11.58 -14.17)"/><path class="cls-1" d="M608.6,472.33a10.52,10.52,0,0,0-.67-1.89l-.5-1-15.68-15.7c-11-11-15.92-15.86-16.46-16.24a6.21,6.21,0,0,0-3.77-1.18,7.22,7.22,0,0,0-2,.13,8.62,8.62,0,0,0-6.08,6.35,6.85,6.85,0,0,0,.65,4.71l.5,1,12.68,12.71L590,473.91l-12.53,12.6c-13.29,13.36-13.26,13.34-13.82,15-1.32,3.89,1.21,8.41,5.49,9.83a8.21,8.21,0,0,0,4.26,0c1.86-.6,1.14.07,18.1-16.89s16.36-16.28,17-18.21A8.65,8.65,0,0,0,608.6,472.33Z" transform="translate(-11.58 -14.17)"/><path class="cls-1" d="M121.33,14.34a10.16,10.16,0,0,0-3.73,0A7.68,7.68,0,0,0,113.72,17c-.26.34-4.38,7.38-9.14,15.65S89.74,58.41,82.17,71.51,68.28,95.62,68.11,96a7.36,7.36,0,0,0,.12,6.73,9.16,9.16,0,0,0,2.66,2.83,7.46,7.46,0,0,0,10.22-1.28c.28-.34,3.57-5.92,7.29-12.39l8-13.9c.69-1.17,7.83-13.54,15.88-27.49,9.25-16,14.76-25.67,15-26.19a9.24,9.24,0,0,0,.25-3.95A8.46,8.46,0,0,0,121.33,14.34Z" transform="translate(-11.58 -14.17)"/><path class="cls-1" d="M42.75,72.63C36,65.87,30.44,60.29,30.44,60.23s5.43-5.51,12.06-12.1,12.38-12.4,12.78-12.9a7.87,7.87,0,0,0,1.6-3.1,8.34,8.34,0,0,0-.18-3.9,8.89,8.89,0,0,0-5.33-5.33,9.53,9.53,0,0,0-4-.18,9.37,9.37,0,0,0-2.44,1.15c-.71.47-30.94,30.65-31.69,31.62a9.25,9.25,0,0,0-1.47,3,8.87,8.87,0,0,0,.12,3.9c.61,2-.33,1,17,18.34C44.51,96.36,44.82,96.67,45.75,97.13a6.47,6.47,0,0,0,3.67.83,8.25,8.25,0,0,0,6.8-4.63A6.85,6.85,0,0,0,57,90a6.92,6.92,0,0,0-1.47-4.37C55.28,85.25,49.51,79.4,42.75,72.63Z" transform="translate(-11.58 -14.17)"/><path class="cls-1" d="M179.74,58.63a10.89,10.89,0,0,0-.68-1.89l-.49-1L162.89,40c-11-11-15.92-15.86-16.46-16.24a6.22,6.22,0,0,0-3.78-1.18,7.26,7.26,0,0,0-2,.13,8.62,8.62,0,0,0-6.07,6.35,6.74,6.74,0,0,0,.65,4.71l.49,1L148.4,47.51l12.69,12.71L148.55,72.81c-13.29,13.36-13.25,13.34-13.82,15-1.31,3.89,1.22,8.42,5.5,9.83a8.1,8.1,0,0,0,4.26,0c1.85-.59,1.13.07,18.1-16.89s16.35-16.28,17-18.21A8.93,8.93,0,0,0,179.74,58.63Z" transform="translate(-11.58 -14.17)"/><path class="cls-1" d="M284,39.23A12.44,12.44,0,0,0,276.65,46l-1,2-.09,25.19-.1,25.2-1.11.3a166,166,0,0,0-24,7.65c-3.13,1.24-7.71,3.19-10.18,4.37l-4.43,2.13-10.89-13c-22.25-26.56-20.81-24.93-23.24-26.16a13.49,13.49,0,0,0-13.19.69c-1.69,1.17-40.31,33.66-42.18,35.46a12.6,12.6,0,0,0-3.58,12.86,15.89,15.89,0,0,0,1.53,3.43c.48.75,7.62,9.33,15.84,19.12s15,17.91,15.11,18.12a8.44,8.44,0,0,1-1.59,2.71A193.47,193.47,0,0,0,156,196.33c-1,2.2-1.74,3.55-2,3.55s-10.9-1.84-23.67-4.06-23.9-4.07-24.74-4.07a14.75,14.75,0,0,0-6.17,1.69,13.46,13.46,0,0,0-6.27,8.4c-1.17,5.24-9.39,53.31-9.39,55A12,12,0,0,0,85.87,264a12.65,12.65,0,0,0,8.73,5.56c1.23.28,12.1,2.2,24.14,4.31l21.89,3.88.18,2c1.21,14.24,2.86,24,5.9,35.13a19.73,19.73,0,0,1,1,4.61c-.13.12-9.52,5.54-20.87,12.07-22.4,12.89-23.12,13.37-24.75,16.83a12.85,12.85,0,0,0-.51,10c1,2.68,27.7,48.65,29.24,50.34a12.72,12.72,0,0,0,14.48,2.92c1-.49,10.93-6.12,22-12.5l20.11-11.62,4.28,4.28c7.74,7.76,19.27,17.22,26.49,21.73,1.09.69,1.42,1.06,1.33,1.51s-3.74,10.56-8.16,22.73S203.1,460.6,203,461.5c-.78,4.91,2.2,10.84,6.56,13.07,2.77,1.38,51.94,19.14,54,19.51a12.93,12.93,0,0,0,10.3-2.83c2.44-2,3-3.38,11.62-27l8.25-22.67,2,.21c1.08.09,3.61.33,5.6.54a239.28,239.28,0,0,0,29-.18c3-.27,5.57-.45,5.63-.39s3.76,10.18,8.25,22.49,8.52,23,8.94,23.78a12.78,12.78,0,0,0,13,6.09c2.14-.37,51.18-18.07,54-19.48A13.39,13.39,0,0,0,426.79,462c-.12-.84-3.86-11.59-8.34-23.93s-8.19-22.7-8.25-23,.24-.82,1.32-1.51c7.23-4.51,18.79-14,26.5-21.7l4.3-4.31,20.08,11.62c11.08,6.38,21,12,22.07,12.56,1.81.87,2.2.93,5.15.93s3.25,0,5.45-1.15a12.34,12.34,0,0,0,3.76-2.7c1-1.12,5.57-8.77,15-25.08,7.44-12.89,13.82-24.21,14.18-25.11a12.45,12.45,0,0,0-2.71-13.4c-1.32-1.41-4.42-3.31-22.43-13.67-11.47-6.62-20.92-12.1-21-12.19a12.56,12.56,0,0,1,.63-2.8,183.21,183.21,0,0,0,6.21-34.71c.18-2.23.36-4.07.39-4.07s10.62-1.92,23.54-4.18,24.08-4.37,24.84-4.61A13.22,13.22,0,0,0,546,258.65c.33-2,.3-2.41-4.4-29C539,214.84,536.61,202,536.34,201a13.15,13.15,0,0,0-7.67-8.4c-3.44-1.29-3.77-1.26-29.12,3.2-12.82,2.25-23.54,4.09-23.84,4.09s-.57-.18-.57-.39c0-.66-7.14-14.75-9.64-19s-7.25-11.5-9.78-14.93a8.71,8.71,0,0,1-1.3-2.11c.06-.12,6.66-8,14.7-17.61s15.17-18.12,15.89-19.06a13,13,0,0,0,.33-14.81c-.75-1.11-6.56-6.2-22.15-19.33-24.66-20.77-23.88-20.23-29-20.23-2.74,0-3.43.12-5,.78a15.19,15.19,0,0,0-2.95,1.66c-.85.63-30.92,36.1-32.13,37.81-.09.15-2.26-.75-4.81-2A129.34,129.34,0,0,0,374,104.29c-4.76-1.68-12.49-4.09-15.83-4.93-.73-.18-1.84-.49-2.5-.64l-1.21-.33V75.15c0-12.79-.15-24.23-.3-25.44a12.73,12.73,0,0,0-8.67-10.57c-1.81-.63-2.32-.63-30.68-.6H285.92Zm38.12,156.44a68.85,68.85,0,0,1,24.44,7.22,68,68,0,0,1,18.82,13.67A71.31,71.31,0,0,1,385.45,258a91.1,91.1,0,0,1-.15,17.62,70.09,70.09,0,0,1-11.17,29.89,71.37,71.37,0,0,1-76.35,29.87,74.35,74.35,0,0,1-26.31-12.74A88.61,88.61,0,0,1,259.61,311a71.35,71.35,0,0,1-15.39-37.09,95.61,95.61,0,0,1,0-15.23,71.1,71.1,0,0,1,65.15-63.08A104.15,104.15,0,0,1,322.14,195.67Z" transform="translate(-11.58 -14.17)"/></svg>