<svg id="Capa_1" data-name="Capa 1" xmlns="http://www.w3.org/2000/svg" viewBox="0 0 69.67 69.31"><defs><style>.cls-1{fill:#2a7ae4;}</style></defs><g id="layer1"><g id="g1894"><path id="path8615" class="cls-1" d="M41.68,7.82C24,7.82,25.1,15.49,25.1,15.49l0,7.94H42v2.39H18.42S7.1,24.54,7.1,42.38,17,59.6,17,59.6h5.89V51.32s-.31-9.88,9.72-9.88H49.34s9.4.15,9.4-9.09V17.07S60.17,7.82,41.68,7.82Zm-9.3,5.34a3,3,0,1,1-3,3A3,3,0,0,1,32.38,13.16Z" transform="translate(-7.1 -7.82)"/><path id="path8620" class="cls-1" d="M42.19,77.13c17.68,0,16.58-7.67,16.58-7.67l0-7.95H41.87V59.13H65.45s11.32,1.28,11.32-16.57-9.88-17.21-9.88-17.21H61v8.28s.32,9.88-9.72,9.88H34.54s-9.41-.15-9.41,9.09V67.88S23.7,77.13,42.19,77.13Zm9.3-5.34a3,3,0,1,1,3-3A3,3,0,0,1,51.49,71.79Z" transform="translate(-7.1 -7.82)"/></g></g></svg>