<svg id="Capa_1" data-name="Capa 1" xmlns="http://www.w3.org/2000/svg" viewBox="0 0 450.71 257.95"><defs><style>.cls-1{fill:#ff8138;}.cls-2{fill:#fff;}.cls-3{fill:none;}</style></defs><path class="cls-1" d="M186.42,130.84a2.35,2.35,0,0,0-1.25-.11l-87.66-.23c-1.68,0-1.52.22-1.47-1.46.15-4.76.34-9.51.46-14.27,0-1,.22-1.31,1.29-1.31q58.41,0,116.8,0h1.21c-.54,1-1,1.89-1.49,2.75Q195.67,149.39,177,182.52,162.1,209,147.19,235.46a3.53,3.53,0,0,0-.28.5c-.3.79-.66.71-1.23.2-2.81-2.49-5.65-4.94-8.48-7.4-1.75-1.53-3.48-3.08-5.27-4.56a1.09,1.09,0,0,1-.28-1.7c4.56-7.55,9.07-15.12,13.6-22.68q10.62-17.76,21.26-35.51,9.63-16.06,19.25-32.13A3.24,3.24,0,0,0,186.42,130.84Z"/><path class="cls-1" d="M264.08,130.72l3.43,5.78,29.66,49.55Q308,204.2,319,222.34a1.26,1.26,0,0,1-.31,2q-6.84,5.85-13.57,11.82c-.76.67-1,.4-1.38-.3q-6.46-11.54-13-23.05l-21.9-38.89L242.7,127.4l-7.23-12.83c-.17-.29-.31-.6-.47-.91.4-.3.79-.17,1.15-.17q58.35,0,116.68,0c1.11,0,1.34.36,1.37,1.36.12,4.79.27,9.59.49,14.38.05,1.11-.29,1.32-1.32,1.32q-43.89.07-87.77.2Z"/><path class="cls-1" d="M226.25,168.21,219.91,179,190.8,228.42q-7.44,12.65-14.87,25.3c-.38.65-.65.83-1.39.45q-7-3.55-14-7c-.76-.37-.8-.64-.4-1.34q19.68-33.9,39.32-67.81l24.71-42.63.61-1c1.57,2.59,3.09,5.09,4.6,7.6q17.11,28.41,34.21,56.83,13.75,22.86,27.53,45.69c.55.92.41,1.2-.53,1.62q-7.91,3.48-15.74,7.09c-.7.32-1,.17-1.3-.45q-15.37-27.54-30.77-55.06l-15.91-28.43C226.72,169,226.54,168.68,226.25,168.21Z"/><path class="cls-1" d="M254,32.25A28.62,28.62,0,1,1,225.33,3.58,28.64,28.64,0,0,1,254,32.25Z"/><path class="cls-1" d="M262.81,87.93c-1-6.26-.76-12.57-.83-18.87,0-1.11.34-1.32,1.36-1.31,5.42,0,10.84,0,16.25,0,.84,0,1.13.19,1.13,1.08q0,17.76,0,35.51c0,.81-.23,1-1,1q-8.18,0-16.37,0a2.14,2.14,0,0,1-1.6-.72q-9.81-9.47-19.64-18.91l-.71-.65a22.2,22.2,0,0,0,.27,4.46c.53,5,.21,10,.32,15,0,.66-.19.87-.85.86-5.65,0-11.3,0-17,0-.84,0-.92-.33-.92-1,0-5.8,0-11.6,0-17.4,0-6,0-12.07,0-18.1,0-.84.17-1.13,1.07-1.12,5.42,0,10.84,0,16.25,0a2.39,2.39,0,0,1,1.81.82q9.75,9.44,19.54,18.85l.66.61Z"/><path class="cls-1" d="M189,105.37c-7.9,0-15.79,0-23.68,0-.88,0-1.19-.18-1.19-1.13q.06-17.7,0-35.4c0-.85.21-1.11,1.1-1.11q23.16,0,46.32,0c1,0,1.14.32,1.12,1.18-.06,2.17-.07,4.34,0,6.5,0,.93-.26,1.15-1.16,1.15-8.83,0-17.65,0-26.47,0-1.14,0-1.49.29-1.38,1.4a17.91,17.91,0,0,1,0,3c-.06.83.24,1,1,1,7.43,0,14.86,0,22.29,0,1,0,1.24.21,1.21,1.19-.08,2.21-.07,4.41,0,6.62,0,.84-.26,1-1,1-7.43,0-14.86,0-22.29,0-1,0-1.28.22-1.21,1.2a20.11,20.11,0,0,1,0,3.47c-.11,1.1.33,1.24,1.3,1.24,9.2,0,18.41,0,27.62,0,1.1,0,1.35.31,1.31,1.35-.07,2.12-.06,4.25,0,6.38,0,.87-.23,1.11-1.1,1.1C204.84,105.36,196.91,105.37,189,105.37Z"/><path class="cls-1" d="M110.29,93.75c2.79,0,5.57,0,8.36,0a1.2,1.2,0,0,1,1.29.69,5,5,0,0,0,3.15,2.38A20.08,20.08,0,0,0,134.2,97a2,2,0,0,0,.43-.15c.83-.42,1.78-.77,1.79-1.9s-.89-1.48-1.7-1.82c-2.93-1.21-6.05-1.53-9.14-2A81.51,81.51,0,0,1,110.75,88a16.8,16.8,0,0,1-5.39-2.88,8,8,0,0,1,.12-12.83,21.28,21.28,0,0,1,9.69-4.2c9-1.71,18-1.92,26.9.51a17,17,0,0,1,9.62,6.07A10.65,10.65,0,0,1,153.3,78c.17.55,0,.77-.58.76H135.65a.83.83,0,0,1-.9-.53,3.56,3.56,0,0,0-2.45-2,18.73,18.73,0,0,0-9.52-.28,3.5,3.5,0,0,0-1,.38,1.37,1.37,0,0,0-.26,2.45,7.09,7.09,0,0,0,3.16,1.36c4.82,1.15,9.75,1.68,14.61,2.58A49.47,49.47,0,0,1,147.68,85a17.07,17.07,0,0,1,4.08,2.19,7.8,7.8,0,0,1,2.07,10.88,14,14,0,0,1-7,5.28,42.28,42.28,0,0,1-12.87,2.73c-6.39.46-12.76.46-19-1.14-4.28-1.08-8.34-2.63-11.51-5.89A9.38,9.38,0,0,1,101,94.61c-.17-.71,0-.88.7-.87C104.56,93.76,107.43,93.75,110.29,93.75Z"/><path class="cls-1" d="M287.26,105.37c1.5-2.64,2.89-5.12,4.3-7.6Q299.78,83.31,308,68.83a1.77,1.77,0,0,1,1.79-1.08c5.88,0,11.76,0,17.64,0a1.45,1.45,0,0,1,1.5.78Q339,86.45,349.23,104.33c.45.79.54,1.07-.56,1.06q-8.66-.06-17.3,0a1.33,1.33,0,0,1-1.46-1c-.44-1.11-1-2.16-1.5-3.26a1.15,1.15,0,0,0-1.22-.8c-5.92,0-11.84,0-17.77,0a1.06,1.06,0,0,0-1.13.75c-.51,1.2-1.11,2.37-1.61,3.58a1,1,0,0,1-1,.68Z"/><path class="cls-2" d="M318.37,79.15l6.14,13.13c-.11.31-.33.25-.51.25H313.23c-.46,0-1,.15-.59-.68C314.53,87.72,316.38,83.57,318.37,79.15Z"/><rect class="cls-3" width="450.71" height="257.95"/></svg>